HIERARCHY
ROOT Hips
{
	OFFSET 0.00000 0.00000 0.00000
	CHANNELS 6 Xposition Yposition Zposition Zrotation Yrotation Xrotation 
	JOINT LHipJoint
	{
		OFFSET 0 0 0
		CHANNELS 3 Zrotation Yrotation Xrotation
		JOINT LeftHip
		{
			OFFSET 1.81638 -1.86202 0.89635
			CHANNELS 3 Zrotation Yrotation Xrotation
			JOINT LeftKnee
			{
				OFFSET 2.63464 -7.23861 0.00000
				CHANNELS 3 Zrotation Yrotation Xrotation
				JOINT LeftAnkle
				{
					OFFSET 2.45871 -6.75336 0.00000
					CHANNELS 3 Zrotation Yrotation Xrotation
					JOINT LeftToe
					{
						OFFSET 0.34235 -0.94059 2.20020
						CHANNELS 3 Zrotation Yrotation Xrotation
						End Site
						{
							OFFSET 0.00000 -0.00000 1.18611
						}
					}
				}
			}
		}
	}
	JOINT RHipJoint
	{
		OFFSET 0 0 0
		CHANNELS 3 Zrotation Yrotation Xrotation
		JOINT RightHip
		{
			OFFSET -1.84405 -1.86203 0.89635
			CHANNELS 3 Zrotation Yrotation Xrotation
			JOINT RightKnee
			{
				OFFSET -2.71067 -7.44751 0.00000
				CHANNELS 3 Zrotation Yrotation Xrotation
				JOINT RightAnkle
				{
					OFFSET -2.47159 -6.79060 0.00000
					CHANNELS 3 Zrotation Yrotation Xrotation
					JOINT RightToe
					{
						OFFSET -0.26223 -0.72048 2.36007
						CHANNELS 3 Zrotation Yrotation Xrotation
						End Site
						{
							OFFSET -0.00000 -0.00000 1.23343
						}
					}
				}
			}
		}
	}
	JOINT lowerback
	{
		OFFSET 0 0 0
		CHANNELS 3 Zrotation Yrotation Xrotation
		JOINT Chest
		{
			OFFSET 0.02089 1.99248 -0.22512
			CHANNELS 3 Zrotation Yrotation Xrotation
			JOINT Chest2
			{
				OFFSET 0.01476 2.01356 -0.03079
				CHANNELS 3 Zrotation Yrotation Xrotation
				JOINT lowerneck
				{
					OFFSET 0 0 0
					CHANNELS 3 Zrotation Yrotation Xrotation
					JOINT Neck
					{
						OFFSET 0.04846 1.65098 0.06663
						CHANNELS 3 Zrotation Yrotation Xrotation
						JOINT Head
						{
							OFFSET -0.06061 1.60634 -0.07565
							CHANNELS 3 Zrotation Yrotation Xrotation
							End Site
							{
								OFFSET -0.02954 1.73562 -0.03642
							}
						}
					}
				}
				JOINT LeftCollar
				{
					OFFSET 0 0 0
					CHANNELS 3 Zrotation Yrotation Xrotation
					JOINT LeftShoulder
					{
						OFFSET 3.45234 1.47051 -0.06993
CHANNELS 3 Zrotation Xrotation Yrotation
						JOINT LeftElbow
						{
OFFSET 0 -5.493130 0.000000
CHANNELS 3 Zrotation Xrotation Yrotation
							JOINT LeftWrist
							{
OFFSET 0 -3.290370 0.000000
CHANNELS 3 Zrotation Xrotation Yrotation
								JOINT lhand
								{
									OFFSET 0 0 0
CHANNELS 3 Zrotation Xrotation Yrotation
									JOINT LFingers
									{
OFFSET 0 -0.729660 0.000000
CHANNELS 3 Zrotation Xrotation Yrotation
										End Site
										{
OFFSET 0 -0.588270 0.000000
										}
									}
								}
								JOINT LThumb
								{
OFFSET 0 0.000000 0.000000
CHANNELS 3 Zrotation Xrotation Yrotation
									End Site
									{
OFFSET 0 -0.597250 0.597250
									}
								}
							}
						}
					}
				}
				JOINT RightCollar
				{
					OFFSET 0 0 0
					CHANNELS 3 Zrotation Yrotation Xrotation
					JOINT RightShoulder
					{
						OFFSET -3.41935 1.44327 0.20453
CHANNELS 3 Zrotation Xrotation Yrotation
						JOINT RightElbow
						{
OFFSET 0 -5.236840 0.000000
CHANNELS 3 Zrotation Xrotation Yrotation
							JOINT RightWrist
							{
OFFSET 0 -3.382510 0.000000
CHANNELS 3 Zrotation Xrotation Yrotation
								JOINT rhand
								{
									OFFSET 0 0 0
CHANNELS 3 Zrotation Xrotation Yrotation
									JOINT RFingers
									{
OFFSET 0 -0.691450 0.000000
CHANNELS 3 Zrotation Xrotation Yrotation
										End Site
										{
OFFSET 0 -0.557470 0.000000
										}
									}
								}
								JOINT RThumb
								{
OFFSET 0 0.000000 0.000000
CHANNELS 3 Zrotation Xrotation Yrotation
									End Site
									{
OFFSET 0 -0.565980 0.565980
									}
								}
							}
						}
					}
				}
			}
		}
	}
}
MOTION
Frames: 5
Frame Time: 0.008333333333333333
-34.753700 17.587100 -3.019900 -46.626100 82.247500 -43.263100 0.000000 0.000000 0.000000 -12.876800 -2.596400 -21.608300 4.155300 12.364300 37.033000 0.941100 -3.900900 -17.439200 0.071400 1.724000 4.743500 0.000000 0.000000 0.000000 30.612300 2.212500 8.179600 -0.268100 -3.331000 9.201500 -0.042100 -20.389900 -29.115600 -0.102500 -2.065000 5.685300 1.743500 -1.420000 15.275600 2.283800 -1.159700 7.903300 1.578800 -0.394400 -0.187000 -2.896500 4.684500 -5.724900 -2.144400 6.889900 10.324200 0.174400 3.198000 4.408700 0.000000 0.000000 0.000000 4.471500 13.623300 -21.712000 32.819200 -43.190600 13.298200 0.154500 -2.624700 -11.220100 0.000000 0.000000 0.000000 -7.125000 0.000000 0.000000 -23.375500 40.028100 -3.059500 0.000000 0.000000 0.000000 -17.219400 12.253300 52.375800 -23.164800 -34.268500 -7.230800 -13.057000 3.196800 14.589100 0.000000 0.000000 0.000000 7.125000 0.000000 -0.000000 13.337100 44.518300 0.161500
-34.740588 17.587311 -3.022718 -46.348329 82.215645 -42.958272 0.000000 0.000000 0.000000 -12.905620 -2.526199 -21.614305 4.156063 12.365242 37.036703 0.950054 -3.886276 -17.526718 0.061444 1.596562 4.392050 0.000000 0.000000 0.000000 30.593050 2.263984 8.199234 -0.269497 -3.339274 9.224763 -0.040660 -20.417931 -29.143371 -0.099244 -2.031010 5.591279 1.730742 -1.395106 15.281665 2.256862 -1.130819 7.878234 1.553652 -0.380911 -0.217593 -2.943602 4.670047 -5.691844 -2.038641 6.862391 10.337476 0.215395 3.187960 4.400522 0.000000 0.000000 0.000000 4.534381 13.566807 -21.684956 32.882711 -43.239679 13.341665 0.433223 -2.568329 -11.774141 0.000000 0.000000 0.000000 -7.125000 0.000000 0.000000 -23.333055 40.561672 -2.723576 0.000000 0.000000 0.000000 -17.209127 12.249636 52.265434 -23.149651 -34.251995 -7.222351 -13.074278 3.230754 14.632684 0.000000 0.000000 0.000000 7.125000 0.000000 0.000000 13.334109 44.563502 0.146301
-34.729180 17.587503 -3.025945 -46.219784 82.205194 -42.784689 0.000000 0.000000 0.000000 -12.927536 -2.523690 -21.625286 4.159815 12.370112 37.054152 0.947580 -3.876880 -17.503811 0.068039 1.682775 4.629760 0.000000 0.000000 0.000000 30.568733 2.304962 8.173611 -0.271966 -3.354422 9.267165 -0.033483 -20.463837 -29.154475 -0.093472 -1.971433 5.426763 1.712885 -1.369776 15.265032 2.252594 -1.100530 7.889869 1.554234 -0.366091 -0.196738 -2.878810 4.602864 -5.708113 -2.079866 6.768262 10.290000 0.185149 3.142767 4.391127 0.000000 0.000000 0.000000 4.565291 13.395565 -21.680481 32.925031 -43.272342 13.370630 0.544075 -2.539273 -12.419514 0.000000 0.000000 0.000000 -7.125000 0.000000 0.000000 -23.467963 41.163957 -2.364477 0.000000 0.000000 0.000000 -17.223950 12.151387 52.114852 -23.128767 -34.229338 -7.210609 -13.020954 3.135415 14.649504 0.000000 0.000000 0.000000 7.125000 0.000000 0.000000 13.386754 44.574051 0.143398
-34.719313 17.588038 -3.027425 -46.289679 82.216979 -42.817904 0.000000 0.000000 0.000000 -12.944863 -2.542858 -21.636546 4.163036 12.374288 37.069227 0.965720 -3.810213 -17.685196 0.052645 1.480201 4.071237 0.000000 0.000000 0.000000 30.553488 2.313417 8.130922 -0.275315 -3.375243 9.325176 -0.036229 -20.477208 -29.192335 -0.091296 -1.948792 5.364152 1.685384 -1.360045 15.268963 2.258925 -1.091574 7.878224 1.575208 -0.362841 -0.210706 -2.812288 4.514676 -5.623040 -2.120601 6.642324 10.237680 0.150033 3.083554 4.359720 0.000000 0.000000 0.000000 4.590090 13.304338 -21.683298 32.983969 -43.317715 13.411082 0.546384 -2.592574 -11.831781 0.000000 0.000000 0.000000 -7.125000 0.000000 0.000000 -23.259354 40.624905 -2.674508 0.000000 0.000000 0.000000 -17.241884 12.120948 52.015498 -23.086289 -34.183008 -7.186742 -13.128734 3.284772 14.549875 0.000000 0.000000 0.000000 7.125000 0.000000 0.000000 13.261613 44.487509 0.170850
-34.709060 17.588373 -3.029215 -46.272795 82.216421 -42.765940 0.000000 0.000000 0.000000 -12.962108 -2.543036 -21.649267 4.166929 12.379223 37.087102 0.983658 -3.786344 -17.857630 0.041315 1.309959 3.602091 0.000000 0.000000 0.000000 30.537665 2.336822 8.095774 -0.278950 -3.397130 9.386418 -0.036942 -20.495553 -29.222661 -0.088392 -1.917705 5.278374 1.674056 -1.349917 15.272435 2.253617 -1.080275 7.868799 1.574483 -0.357698 -0.222475 -2.772967 4.442692 -5.578377 -2.125479 6.539131 10.207159 0.134304 3.035147 4.341644 0.000000 0.000000 0.000000 4.630151 13.211739 -21.693670 33.041575 -43.361906 13.450559 0.618121 -2.622752 -11.680551 0.000000 0.000000 0.000000 -7.125000 0.000000 0.000000 -23.147848 40.492459 -2.741720 0.000000 0.000000 0.000000 -17.246497 12.085687 51.892775 -23.068490 -34.163569 -7.176722 -13.127623 3.319773 14.524017 0.000000 0.000000 0.000000 7.125000 0.000000 0.000000 13.255179 44.461836 0.179352
